#!OML:ASF I:\Actors\actors\Patient Classification 1\Patient 1\Session 1\Subject1.ASF
:FULLY-SPECIFIED
:DEGREES
1198
root 0.562414 17.5661 9.15017 36.9014 -0.647077 -8.97943
lowerback 15.4337 -0.879684 10.1727
upperback -7.20259 1.46261 2.1868
thorax -16.9867 -0.301684 -3.63643
lowerneck -12.5996 -3.96223 -2.01043
upperneck 3.3399 -5.81573 11.4746
head 3.47023 -2.39103 3.44012
rclavicle 5.96354e-016 1.41137e-014
rhumerus 58.4458 19.9905 -59.1796
rradius 115.292
rwrist 38.7108
rhand -26.6433 -31.4764
rfingers 7.12502
rthumb -0.0755701 298.544
lclavicle 5.96354e-016 1.41137e-014
lhumerus 39.2978 -36.2702 76.8364
lradius 112.671
lwrist -24.1054
lhand -56.1991 -57.3328
lfingers 7.12502
lthumb -28.5265 -29.4886
rfemur -36.483 26.8483 10.3468
rtibia -0.411614
rfoot -7.06921 -29.0356
rtoes 9.714
lfemur -40.3745 -56.9591 35.1885
ltibia -7.80073
lfoot -79.6088 44.0414
ltoes 52.0791
1199
root 0.576831 17.5653 9.14403 36.8646 -0.584984 -9.01537
lowerback 15.149 -0.82297 10.0138
upperback -7.01402 1.46185 2.27758
thorax -16.5663 -0.251721 -3.44426
lowerneck -12.6759 -3.98089 -2.20266
upperneck 3.20177 -5.80499 11.5694
head 3.44909 -2.3871 3.50096
rclavicle -1.48095e-014 5.84427e-014
rhumerus 58.7456 19.8639 -58.9397
rradius 115.314
rwrist 38.6406
rhand -26.644 -31.3116
rfingers 7.12502
rthumb -0.0762833 298.709
lclavicle -1.48095e-014 5.84427e-014
lhumerus 39.5811 -36.1526 76.9024
lradius 112.509
lwrist -24.4542
lhand -56.9598 -59.1319
lfingers 7.12502
lthumb -29.2531 -31.412
rfemur -36.4549 26.7845 10.4029
rtibia -0.380258
rfoot -7.11637 -28.9884
rtoes 9.61343
lfemur -40.2858 -57.0036 35.1724
ltibia -7.92773
lfoot -79.5293 44.1113
ltoes 52.088
1200
root 0.591568 17.5642 9.13889 36.8286 -0.542183 -9.01522
lowerback 15.1691 -0.813182 9.98255
upperback -6.99935 1.46241 2.2284
thorax -16.5588 -0.25118 -3.48444
lowerneck -12.7921 -3.99938 -2.1381
upperneck 3.3187 -5.85409 11.5871
head 3.50571 -2.40131 3.49017
rclavicle -1.98785e-016 5.38706e-014
rhumerus 58.7039 19.8187 -59.0012
rradius 115.315
rwrist 38.6643
rhand -26.6544 -31.037
rfingers 7.12502
rthumb -0.0862483 298.983
lclavicle -1.98785e-016 5.38706e-014
lhumerus 39.6231 -36.2195 76.8881
lradius 112.541
lwrist -24.3811
lhand -57.7266 -61.41
lfingers 7.12502
lthumb -29.985 -33.82
rfemur -36.4302 26.6933 10.394
rtibia -0.369549
rfoot -7.1383 -28.9575
rtoes 9.69718
lfemur -40.2151 -57.0578 35.1184
ltibia -8.03238
lfoot -79.4933 43.9904
ltoes 52.1429
1201
root 0.606105 17.5629 9.13568 36.781 -0.504993 -9.01172
lowerback 15.2899 -0.82921 9.95748
upperback -7.05159 1.44534 2.15765
thorax -16.7023 -0.270051 -3.54741
lowerneck -11.9304 -3.7358 -2.45141
upperneck 2.49412 -5.41248 12.2904
head 3.12062 -2.21707 3.80405
rclavicle 9.83984e-015 -3.77691e-015
rhumerus 58.5326 19.8613 -59.1631
rradius 115.314
rwrist 38.7835
rhand -26.6165 -30.8915
rfingers 7.12502
rthumb -0.0497187 299.129
lclavicle 9.83984e-015 -3.77691e-015
lhumerus 39.5399 -36.2737 76.8321
lradius 112.514
lwrist -24.4463
lhand -57.6834 -60.8691
lfingers 7.12502
lthumb -29.9438 -33.2716
rfemur -36.3809 26.6052 10.383
rtibia -0.364116
rfoot -7.14273 -28.9449
rtoes 9.47362
lfemur -40.199 -57.1173 35.0644
ltibia -8.0485
lfoot -79.4808 43.7756
ltoes 52.2624
1202
root 0.619715 17.5623 9.13288 36.7311 -0.412389 -9.02681
lowerback 15.3184 -0.875345 9.99365
upperback -7.06043 1.3901 2.12364
thorax -16.7392 -0.303681 -3.59092
lowerneck -12.8566 -3.92754 -1.8205
upperneck 3.59445 -5.83434 11.56
head 3.58861 -2.37501 3.4298
rclavicle -4.87022e-015 -1.15295e-014
rhumerus 58.4653 19.932 -59.2683
rradius 115.325
rwrist 38.923
rhand -26.6079 -31.0705
rfingers 7.12502
rthumb -0.0413707 298.95
lclavicle -4.87022e-015 -1.15295e-014
lhumerus 39.5087 -36.2407 76.7324
lradius 112.48
lwrist -24.5042
lhand -56.5927 -56.7078
lfingers 7.12502
lthumb -28.9025 -28.9273
rfemur -36.2933 26.523 10.4685
rtibia -0.354652
rfoot -7.05605 -28.9446
rtoes 8.69835
lfemur -40.2734 -57.177 35.1248
ltibia -8.02541
lfoot -79.4459 43.6138
ltoes 52.3945
1203
root 0.631858 17.5623 9.12891 36.7022 -0.297326 -9.04254
lowerback 15.2863 -0.913777 10.0371
upperback -7.0492 1.34306 2.12946
thorax -16.712 -0.327568 -3.59465
lowerneck -12.8442 -3.97251 -2.21722
upperneck 3.5885 -5.85589 11.873
head 3.60955 -2.37775 3.58929
rclavicle 4.57205e-015 2.46493e-014
rhumerus 58.4879 19.9975 -59.2644
rradius 115.359
rwrist 38.9065
rhand -26.6606 -31.295
rfingers 7.12502
rthumb -0.0923282 298.725
lclavicle 4.57205e-015 2.46493e-014
lhumerus 39.4862 -36.2227 76.6863
lradius 112.535
lwrist -24.4653
lhand -56.894 -57.8828
lfingers 7.12502
lthumb -29.1903 -30.1519
rfemur -36.2247 26.4305 10.5715
rtibia -0.349187
rfoot -7.03105 -28.9291
rtoes 8.43972
lfemur -40.4072 -57.2151 35.255
ltibia -8.00544
lfoot -79.376 43.6119
ltoes 52.4033
1204
root 0.643149 17.5619 9.12502 36.6899 -0.221148 -9.07308
lowerback 14.9323 -0.836872 9.81188
upperback -6.85058 1.35808 2.30064
thorax -16.2361 -0.255284 -3.27758
lowerneck -12.7712 -3.98264 -2.41134
upperneck 3.21018 -5.79825 11.858
head 3.48378 -2.3701 3.62306
rclavicle 4.87022e-015 4.35338e-014
rhumerus 58.8446 19.8642 -58.8962
rradius 115.392
rwrist 38.7734
rhand -26.6139 -31.3371
rfingers 7.12502
rthumb -0.0471793 298.683
lclavicle 4.87022e-015 4.35338e-014
lhumerus 39.8617 -36.1501 76.6964
lradius 112.685
lwrist -24.1509
lhand -57.2747 -58.768
lfingers 7.12502
lthumb -29.5538 -31.1009
rfemur -36.206 26.3586 10.6327
rtibia -0.324503
rfoot -7.03111 -28.9204
rtoes 8.46212
lfemur -40.4455 -57.2289 35.3186
ltibia -8.03501
lfoot -79.334 43.5934
ltoes 52.447
1205
root 0.653812 17.561 9.12072 36.6683 -0.16235 -9.11717
lowerback 15.3018 -0.872213 10.015
upperback -7.0444 1.39839 2.14036
thorax -16.7079 -0.298871 -3.58609
lowerneck -12.8466 -3.99008 -2.28524
upperneck 3.49694 -5.86797 11.9821
head 3.58936 -2.38304 3.63337
rclavicle -1.3418e-014 -5.76476e-015
rhumerus 58.4212 19.9094 -59.2526
rradius 115.42
rwrist 38.8118
rhand -26.5353 -31.349
rfingers 7.12502
rthumb 0.0287206 298.671
lclavicle -1.3418e-014 -5.76476e-015
lhumerus 39.5945 -36.4266 76.6153
lradius 112.965
lwrist -23.38
lhand -55.779 -56.2167
lfingers 7.12502
lthumb -28.125 -28.3058
rfemur -36.1783 26.316 10.704
rtibia -0.309246
rfoot -7.00608 -28.9201
rtoes 8.36292
lfemur -40.3961 -57.2445 35.3339
ltibia -8.10421
lfoot -79.3274 43.4509
ltoes 52.5371
1206
root 0.664795 17.5601 9.11496 36.6459 -0.123293 -9.10554
lowerback 15.227 -0.823305 9.9416
upperback -6.99645 1.4345 2.14123
thorax -16.5933 -0.267622 -3.55511
lowerneck -12.7749 -4.00384 -2.13406
upperneck 3.3462 -5.88586 11.8733
head 3.52486 -2.40297 3.57528
rclavicle 6.26172e-015 -3.37934e-014
rhumerus 58.4424 19.7983 -59.1776
rradius 115.436
rwrist 38.7584
rhand -26.5796 -31.3676
rfingers 7.12502
rthumb -0.0140221 298.653
lclavicle 6.26172e-015 -3.37934e-014
lhumerus 39.7769 -36.5146 76.5721
lradius 113.155
lwrist -22.7322
lhand -55.2444 -56.0194
lfingers 7.12502
lthumb -27.6139 -28.0257
rfemur -36.1504 26.2461 10.708
rtibia -0.317314
rfoot -7.03674 -28.8894
rtoes 8.48118
lfemur -40.422 -57.26 35.3324
ltibia -8.14198
lfoot -79.2637 43.4206
ltoes 52.5162
